# xmcd
#
# Track frame offsets: 
#        150
#        13575
#        23683
#        35894
#        55226
#        64837
#        82289
#        96898
#        116022
#        126816
#        149943
#        162171
#        189334
#
# Disc length: 2570 seconds
#
# Revision: 0
# Processed by: cddbd v1.5.2PL0 Copyright (c) Steve Scherf et al.
# Submitted via: ExactAudioCopy v1.1
#
DISCID=bc0a080d
DTITLE=Barbara Dane - Barbara Dane Sings the Blues
DYEAR=1964
DGENRE=Blues-Acoustic
TTITLE0=You Don't Know Me
TTITLE1=I  Just Want to Make Love to You
TTITLE2=Come Back, Baby
TTITLE3=Stranger's Blues
TTITLE4=Victim to the Blues
TTITLE5='Way Behind the Sun
TTITLE6=Special Delivery Blues
TTITLE7=It Hurts Me Too
TTITLE8=Come On In (There Ain't Nobody Here But Me)
TTITLE9=Hard Oh Lord
TTITLE10=Working People's Blues
TTITLE11=Dink's Blues (Dink's Song)
TTITLE12=Liner Notes
EXTD=
EXTT0=
EXTT1=
EXTT2=
EXTT3=
EXTT4=
EXTT5=
EXTT6=
EXTT7=
EXTT8=
EXTT9=
EXTT10=
EXTT11=
EXTT12=
PLAYORDER=
